<svg viewBox="0 0 2000 2000" xmlns="http://www.w3.org/2000/svg" width="2000" height="2000">
  <defs>
    <linearGradient id="proj2Grad" x1="0%" y1="0%" x2="100%" y2="100%">
      <stop offset="0%" style="stop-color:#3a6b5f;stop-opacity:1" />
      <stop offset="50%" style="stop-color:#2d5a4f;stop-opacity:1" />
      <stop offset="100%" style="stop-color:#1f3a35;stop-opacity:1" />
    </linearGradient>
    <radialGradient id="proj2Light" cx="50%" cy="50%">
      <stop offset="0%" style="stop-color:#6b9485;stop-opacity:0.4" />
      <stop offset="100%" style="stop-color:#1f3a35;stop-opacity:0" />
    </radialGradient>
  </defs>
  <rect width="2000" height="2000" fill="url(#proj2Grad)"/>
  <rect width="2000" height="2000" fill="url(#proj2Light)"/>
  <g stroke="rgba(212,175,112,0.3)" stroke-width="25" fill="none" opacity="0.6">
    <line x1="300" y1="300" x2="300" y2="1700"/>
    <line x1="600" y1="300" x2="600" y2="1700"/>
    <line x1="900" y1="300" x2="900" y2="1700"/>
    <line x1="1200" y1="300" x2="1200" y2="1700"/>
    <line x1="1500" y1="300" x2="1500" y2="1700"/>
    <line x1="1800" y1="300" x2="1800" y2="1700"/>
    <line x1="300" y1="600" x2="1800" y2="600"/>
    <line x1="300" y1="900" x2="1800" y2="900"/>
    <line x1="300" y1="1200" x2="1800" y2="1200"/>
    <line x1="300" y1="1500" x2="1800" y2="1500"/>
  </g>
  <g fill="rgba(255,255,255,0.15)" opacity="0.3">
    <rect x="350" y="350" width="200" height="200"/>
    <rect x="650" y="350" width="200" height="200"/>
    <rect x="950" y="350" width="200" height="200"/>
    <rect x="1250" y="350" width="200" height="200"/>
    <rect x="1550" y="350" width="200" height="200"/>
    <rect x="350" y="650" width="200" height="200"/>
    <rect x="1550" y="650" width="200" height="200"/>
  </g>
  <g stroke="rgba(212,175,112,0.2)" stroke-width="15" stroke-dasharray="50,50" opacity="0.4">
    <line x1="400" y1="100" x2="1600" y2="100"/>
    <line x1="400" y1="1900" x2="1600" y2="1900"/>
  </g>
  <text x="1000" y="350" font-size="75" font-weight="bold" fill="rgba(255,255,255,0.07)" text-anchor="middle" font-family="serif">MODERN OFFICE</text>
</svg>
