<svg viewBox="0 0 2000 2000" xmlns="http://www.w3.org/2000/svg" width="2000" height="2000">
  <defs>
    <linearGradient id="proj4Grad" x1="0%" y1="0%" x2="100%" y2="100%">
      <stop offset="0%" style="stop-color:#3a6b5f;stop-opacity:1" />
      <stop offset="50%" style="stop-color:#2d5a4f;stop-opacity:1" />
      <stop offset="100%" style="stop-color:#1f3a35;stop-opacity:1" />
    </linearGradient>
    <radialGradient id="proj4Light" cx="60%" cy="40%">
      <stop offset="0%" style="stop-color:#7da583;stop-opacity:0.35" />
      <stop offset="100%" style="stop-color:#1f3a35;stop-opacity:0" />
    </radialGradient>
  </defs>
  <rect width="2000" height="2000" fill="url(#proj4Grad)"/>
  <rect width="2000" height="2000" fill="url(#proj4Light)"/>
  <g opacity="0.25" stroke="rgba(212,175,112,0.25)" stroke-width="20" fill="none">
    <polygon points="1000,300 1500,600 1500,1200 1000,1500 500,1200 500,600"/>
    <polygon points="1000,500 1300,700 1300,1100 1000,1300 700,1100 700,700"/>
    <polygon points="1000,700 1200,850 1200,1050 1000,1150 800,1050 800,850"/>
  </g>
  <g fill="rgba(255,255,255,0.12)" opacity="0.6">
    <rect x="600" y="800" width="250" height="250"/>
    <rect x="1150" y="800" width="250" height="250"/>
    <rect x="875" y="600" width="250" height="200"/>
  </g>
  <g stroke="rgba(212,175,112,0.2)" stroke-width="12" fill="none" opacity="0.4">
    <path d="M 300 1700 Q 1000 1500 1700 1700"/>
    <path d="M 300 1800 Q 1000 1600 1700 1800"/>
  </g>
  <g opacity="0.08">
    <circle cx="1600" cy="400" r="300" fill="rgba(212,175,112,0.5)"/>
    <circle cx="400" cy="1500" r="250" fill="rgba(212,175,112,0.4)"/>
  </g>
  <text x="1000" y="280" font-size="65" font-weight="bold" fill="rgba(255,255,255,0.07)" text-anchor="middle" font-family="serif">DESIGNER SHOWROOM</text>
</svg>
