<svg viewBox="0 0 2000 2000" xmlns="http://www.w3.org/2000/svg" width="2000" height="2000">
  <defs>
    <linearGradient id="proj1Grad" x1="0%" y1="0%" x2="100%" y2="100%">
      <stop offset="0%" style="stop-color:#4a7c6f;stop-opacity:1" />
      <stop offset="50%" style="stop-color:#2d5a4f;stop-opacity:1" />
      <stop offset="100%" style="stop-color:#1a3a35;stop-opacity:1" />
    </linearGradient>
    <radialGradient id="proj1Light" cx="70%" cy="30%">
      <stop offset="0%" style="stop-color:#7da583;stop-opacity:0.5" />
      <stop offset="100%" style="stop-color:#1a3a35;stop-opacity:0" />
    </radialGradient>
  </defs>
  <rect width="2000" height="2000" fill="url(#proj1Grad)"/>
  <rect width="2000" height="2000" fill="url(#proj1Light)"/>
  <polygon points="1000,200 1700,800 1000,1400 300,800" fill="rgba(212,175,112,0.15)" stroke="rgba(212,175,112,0.25)" stroke-width="20"/>
  <polygon points="1000,600 1400,900 1000,1200 600,900" fill="rgba(212,175,112,0.1)" stroke="rgba(212,175,112,0.2)" stroke-width="15"/>
  <g opacity="0.15">
    <rect x="400" y="1200" width="300" height="400" fill="rgba(255,255,255,0.3)"/>
    <rect x="900" y="1200" width="300" height="400" fill="rgba(255,255,255,0.3)"/>
    <rect x="1400" y="1200" width="300" height="400" fill="rgba(255,255,255,0.3)"/>
  </g>
  <g stroke="rgba(212,175,112,0.2)" stroke-width="8" fill="none">
    <line x1="300" y1="1800" x2="1700" y2="1800"/>
    <line x1="600" y1="1300" x2="600" y2="1800"/>
    <line x1="900" y1="1300" x2="900" y2="1800"/>
    <line x1="1200" y1="1300" x2="1200" y2="1800"/>
    <line x1="1500" y1="1300" x2="1500" y2="1800"/>
  </g>
  <text x="1000" y="300" font-size="80" font-weight="bold" fill="rgba(255,255,255,0.08)" text-anchor="middle" font-family="serif">CONTEMPORARY VILLA</text>
</svg>
